<?xml version="1.0" encoding="utf-8"?>
<svg viewBox="298.717 107.14 15 15" width="15" height="15" xmlns="http://www.w3.org/2000/svg">
  <path d="M 302.785 107.522 C 301.461 108.351 300.566 109.814 300.566 111.487 C 300.566 113.159 301.461 114.622 302.807 115.451 C 300.537 115.451 298.717 113.678 298.717 111.487 C 298.717 110.435 299.146 109.427 299.908 108.683 C 300.671 107.94 301.706 107.522 302.785 107.522 Z" fill="#0115C6" transform="matrix(1, 0, 0, 1, -7.105427357601002e-15, 0)"/>
  <path d="M 304.331 112.957 L 303.473 112.431 L 302.644 112.993 L 302.896 112.042 L 302.09 111.443 L 303.096 111.378 L 303.429 110.449 L 303.806 111.364 L 304.812 111.386 L 304.035 112.013 L 304.331 112.957 Z" fill="#0115C6" transform="matrix(1, 0, 0, 1, -7.105427357601002e-15, 0)"/>
  <path d="M 306.772 110.355 L 305.677 109.685 L 304.612 110.405 L 304.923 109.18 L 303.894 108.416 L 305.189 108.329 L 305.618 107.14 L 306.114 108.315 L 307.393 108.337 L 306.394 109.151 L 306.772 110.355 Z" fill="#0115C6" transform="matrix(1, 0, 0, 1, -7.105427357601002e-15, 0)"/>
  <path d="M 311.343 108.603 L 312.4 109.634 L 300.884 120.857 L 299.826 119.826 L 311.343 108.603 Z" fill="#0115C6" transform="matrix(1, 0, 0, 1, -7.105427357601002e-15, 0)"/>
  <path d="M 311.291 115.811 C 311.291 116.863 310.862 117.871 310.099 118.615 C 309.336 119.358 308.302 119.776 307.223 119.776 C 306.321 119.776 305.485 119.488 304.812 119.005 L 310.5 113.462 C 310.995 114.118 311.291 114.932 311.291 115.811 Z" fill="#0115C6" transform="matrix(1, 0, 0, 1, -7.105427357601002e-15, 0)"/>
  <path d="M 311.239 118.608 L 312.09 116.612 L 313.717 118.442 L 311.239 118.608 Z" fill="#0115C6" transform="matrix(1, 0, 0, 1, -7.105427357601002e-15, 0)"/>
  <path d="M 312.09 115.033 L 311.247 113.029 L 313.717 113.202 L 312.09 115.033 Z" fill="#0115C6" transform="matrix(1, 0, 0, 1, -7.105427357601002e-15, 0)"/>
  <path d="M 308.037 120.554 L 310.085 119.725 L 309.908 122.14 L 308.037 120.554 Z" fill="#0115C6" transform="matrix(1, 0, 0, 1, -7.105427357601002e-15, 0)"/>
  <path d="M 304.36 119.725 L 306.409 120.554 L 304.538 122.133 L 304.36 119.725 Z" fill="#0115C6" transform="matrix(1, 0, 0, 1, -7.105427357601002e-15, 0)"/>
</svg>