<?xml version="1.0" encoding="utf-8"?>
<svg viewBox="223.403 387.521 15 15" width="15" height="15" xmlns="http://www.w3.org/2000/svg">
  <path d="M 235.977 396.192 C 235.977 397.244 235.548 398.252 234.786 398.996 C 234.023 399.739 232.988 400.157 231.909 400.157 C 231.006 400.157 230.171 399.868 229.498 399.386 L 235.185 393.843 C 235.681 394.498 235.977 395.313 235.977 396.192 Z" fill="#FFC700"/>
  <path d="M 235.926 398.989 L 236.776 396.993 L 238.403 398.823 L 235.926 398.989 Z" fill="#FFC700"/>
  <path d="M 236.776 395.414 L 235.932 393.41 L 238.403 393.582 L 236.776 395.414 Z" fill="#FFC700"/>
  <path d="M 232.722 400.935 L 234.771 400.106 L 234.594 402.521 L 232.722 400.935 Z" fill="#FFC700"/>
  <path d="M 229.047 400.106 L 231.096 400.935 L 229.224 402.513 L 229.047 400.106 Z" fill="#FFC700"/>
  <path d="M 236.029 388.984 L 237.087 390.015 L 225.57 401.238 L 224.513 400.207 L 236.029 388.984 Z" fill="#FFC700"/>
  <path fill-rule="evenodd" clip-rule="evenodd" d="M 230.363 390.066 L 231.458 390.735 L 231.081 389.532 L 232.079 388.718 L 230.799 388.695 L 230.304 387.521 L 229.875 388.71 L 228.581 388.797 L 229.608 389.561 L 229.298 390.786 L 230.363 390.066 Z M 228.159 392.811 L 229.017 393.338 L 228.721 392.394 L 229.498 391.767 L 228.492 391.745 L 228.114 390.829 L 227.782 391.759 L 226.776 391.824 L 227.582 392.422 L 227.331 393.374 L 228.159 392.811 Z" fill="#FFC700"/>
  <path d="M 227.471 387.903 C 226.147 388.732 225.252 390.195 225.252 391.867 C 225.252 393.54 226.147 395.003 227.493 395.832 C 225.222 395.832 223.403 394.059 223.403 391.867 C 223.403 390.816 223.832 389.808 224.595 389.064 C 225.357 388.32 226.392 387.903 227.471 387.903 Z" fill="#FFC700"/>
</svg>